<svg id="Layer_1" data-name="Layer 1" xmlns="http://www.w3.org/2000/svg" viewBox="0 0 122.88 113.37"><defs><style>.cls-1{fill-rule:evenodd;}</style></defs><title>settings</title><path class="cls-1" d="M110,99.72a8.29,8.29,0,0,1-1.84,2.72l-8.37,8.37,0,0A8.26,8.26,0,0,1,97,112.7a8.07,8.07,0,0,1-9.16-1.89l-5-4.89c0-6.18,0-11,0-12.08h0c0-1,0-1.68,0-2a4.35,4.35,0,0,1,.1-.63l.08-.25a18.71,18.71,0,0,1,1.15-3.2,30.43,30.43,0,0,1,3.07-4.87c5.51-7.45,8.2-16,7.5-24.24C92.55,31.67,59,19.56,39,38.89,31,46.59,26.91,58.09,29.9,69c2.38,8.71,7.5,13,11.84,20.1a19,19,0,0,1,1.63,3.37h0l0,.08a4.42,4.42,0,0,1,.21.84c.1.6.17,1.29.23,2.12v.31c.07,1,.13,5.41.19,11.09-.83-.34-1.66-.71-2.52-1.09s-2-.92-2.88-1.41c-.29-.14-.58-.33-.88-.48l-4.67,4.76-.11.11a8.8,8.8,0,0,1-2.73,1.76,8.34,8.34,0,0,1-3.16.59,8.42,8.42,0,0,1-3.17-.59,8.73,8.73,0,0,1-2.73-1.74s-.08,0-.08-.09l-8.35-8.45a8.19,8.19,0,0,1-2.56-6,8.26,8.26,0,0,1,.68-3.3,7.85,7.85,0,0,1,1.88-2.68L18.12,83a39.33,39.33,0,0,1-3-8H8.45a8.79,8.79,0,0,1-3.25-.63,7.88,7.88,0,0,1-2.68-1.85A9,9,0,0,1,.63,69.77,8.61,8.61,0,0,1,0,66.6v-12a8,8,0,0,1,2.48-6A8.22,8.22,0,0,1,5.2,46.82a8.71,8.71,0,0,1,3.25-.63H16c1.11-2.85,2.19-5.1,3.55-7.82l-4.76-4.68A8.52,8.52,0,0,1,13,30.86a8.78,8.78,0,0,1,0-6.33A8.73,8.73,0,0,1,14.7,21.8c2.83-2.83,5.69-5.63,8.54-8.45A8.33,8.33,0,0,1,26,11.5a8.16,8.16,0,0,1,3.26-.67,8.08,8.08,0,0,1,3.25.67,8.42,8.42,0,0,1,2.66,1.89l5.35,5.35a39.56,39.56,0,0,1,8-3V9.07a8.79,8.79,0,0,1,.63-3.25A8.1,8.1,0,0,1,51,3.05c4.17-4,22.47-5,25.63,2.77a8.91,8.91,0,0,1,.62,3.25v7.59c2.85,1.11,5.11,2.19,7.83,3.55l4.68-4.68a9,9,0,0,1,2.72-1.89,8.22,8.22,0,0,1,6.5,0,8,8,0,0,1,2.73,1.89l8.37,8.37A8.63,8.63,0,0,1,112,26.67a8.22,8.22,0,0,1,0,6.5,8.24,8.24,0,0,1-1.89,2.66l-5.35,5.45c1,2.39,2.54,5.4,3,7.95h6.65a8.79,8.79,0,0,1,3.25.63,7.78,7.78,0,0,1,2.68,1.85l.09.08a9.26,9.26,0,0,1,1.8,2.69,8.52,8.52,0,0,1,.63,3.16v12a8.87,8.87,0,0,1-.63,3.25,9.11,9.11,0,0,1-1.84,2.77,8.38,8.38,0,0,1-2.73,1.84,8.71,8.71,0,0,1-3.25.63h-7.59c-1.12,2.87-2.18,5.09-3.55,7.82L108,90.59a9.06,9.06,0,0,1,1.89,2.73,8.22,8.22,0,0,1,0,6.5l.14-.1ZM44.06,71.33c-2.89-4.56-4.56-9.81-1.85-16.92,2.13-5.61,7-10.21,13.25-12.78C45.34,64,74.41,72,75.28,45.51c9.73,8.08,9.65,20,2.51,29.62-3.36,4.56-4.27,7.12-5,9.73a16.23,16.23,0,0,0-.5,4.69c0,1.51,0,10,.09,16.54H54.27c-.09-6-.18-14-.27-15.32a16.66,16.66,0,0,0-.94-5.27c-.82-2.16-1.81-4.14-4.75-8.21-1.34-1.86-3-4-4.25-6Z"/></svg>